<?xml version="1.0" encoding="UTF-8" standalone="no"?>
<!-- Created with Inkscape (http://www.inkscape.org/) -->

<svg
   xmlns:dc="http://purl.org/dc/elements/1.1/"
   xmlns:cc="http://creativecommons.org/ns#"
   xmlns:rdf="http://www.w3.org/1999/02/22-rdf-syntax-ns#"
   xmlns:svg="http://www.w3.org/2000/svg"
   xmlns="http://www.w3.org/2000/svg"
   xmlns:sodipodi="http://sodipodi.sourceforge.net/DTD/sodipodi-0.dtd"
   xmlns:inkscape="http://www.inkscape.org/namespaces/inkscape"
   width="67.237236mm"
   height="26.272133mm"
   viewBox="0 0 238.24217 93.090234"
   id="svg2"
   version="1.1"
   inkscape:version="0.91 r13725"
   sodipodi:docname="Logo.svg">
  <defs
     id="defs4" />
  <sodipodi:namedview
     id="base"
     pagecolor="#ffffff"
     bordercolor="#666666"
     borderopacity="1.0"
     inkscape:pageopacity="0.0"
     inkscape:pageshadow="2"
     inkscape:zoom="0.98994949"
     inkscape:cx="307.45612"
     inkscape:cy="159.1963"
     inkscape:document-units="px"
     inkscape:current-layer="layer2"
     showgrid="false"
     inkscape:window-width="1600"
     inkscape:window-height="837"
     inkscape:window-x="-8"
     inkscape:window-y="-8"
     inkscape:window-maximized="1"
     fit-margin-top="0"
     fit-margin-left="0"
     fit-margin-right="0"
     fit-margin-bottom="0" />
  <metadata
     id="metadata7">
    <rdf:RDF>
      <cc:Work
         rdf:about="">
        <dc:format>image/svg+xml</dc:format>
        <dc:type
           rdf:resource="http://purl.org/dc/dcmitype/StillImage" />
        <dc:title></dc:title>
      </cc:Work>
    </rdf:RDF>
  </metadata>
  <g
     inkscape:label="Text"
     inkscape:groupmode="layer"
     id="layer1"
     transform="translate(-33.436954,-97.032349)"
     style="display:none">
    <text
       xml:space="preserve"
       style="font-style:normal;font-weight:normal;font-size:40px;line-height:75.99999905%;font-family:sans-serif;letter-spacing:0px;word-spacing:6.55000257px;fill:#000000;fill-opacity:1;stroke:none;stroke-width:1px;stroke-linecap:butt;stroke-linejoin:miter;stroke-opacity:1"
       x="31.561954"
       y="143.4093"
       id="text4136"
       sodipodi:linespacing="75.999999%"><tspan
         sodipodi:role="line"
         x="31.561954"
         y="143.4093"
         style="font-style:normal;font-variant:normal;font-weight:bold;font-stretch:normal;font-size:60px;line-height:75.99999905%;font-family:Georgia;-inkscape-font-specification:'Georgia Bold';word-spacing:6.55000257px;fill:#000000"
         id="tspan4148"><tspan
           style="fill:#333333"
           id="tspan4405">Super</tspan><tspan
           style="word-spacing:6.55000257px;fill:#d33232;fill-opacity:1"
           id="tspan4154">🚀</tspan></tspan><tspan
         sodipodi:role="line"
         x="31.561954"
         y="189.00931"
         style="font-style:normal;font-variant:normal;font-weight:bold;font-stretch:normal;font-size:60px;font-family:Georgia;-inkscape-font-specification:Georgia;word-spacing:6.55000257px;fill:#808080"
         id="tspan4158">Serious</tspan><tspan
         sodipodi:role="line"
         x="31.561954"
         y="234.6093"
         id="tspan4140" /></text>
    <text
       xml:space="preserve"
       style="font-style:normal;font-weight:normal;font-size:40px;line-height:256.99999332%;font-family:sans-serif;letter-spacing:0px;word-spacing:0px;fill:#8d1d1d;fill-opacity:1;stroke:none;stroke-width:1px;stroke-linecap:butt;stroke-linejoin:miter;stroke-opacity:1"
       x="388.90872"
       y="141.20461"
       id="text4407"
       sodipodi:linespacing="256.99999%"><tspan
         sodipodi:role="line"
         id="tspan4409"
         x="388.90872"
         y="141.20461" /></text>
  </g>
  <g
     inkscape:groupmode="layer"
     id="layer2"
     inkscape:label="Paths"
     style="display:inline">
    <g
       style="font-style:normal;font-weight:normal;font-size:40px;line-height:75.99999905%;font-family:sans-serif;letter-spacing:0px;word-spacing:6.55000257px;fill:#000000;fill-opacity:1;stroke:none;stroke-width:1px;stroke-linecap:butt;stroke-linejoin:miter;stroke-opacity:1"
       id="text4136-0">
      <path
         d="m 17.578125,47.490234 q -3.808593,0 -7.11914,-0.9375 -3.2812501,-0.9375 -5.5664064,-2.226562 l -2.0214844,2.050781 -2.49023435,0 L 4.7683716e-7,31.347656 2.5195317,31.347656 q 0.8496094,2.138672 2.1679688,4.511719 1.3183594,2.373047 3.046875,4.248047 1.7871094,1.96289 3.9843745,3.193359 2.226563,1.230469 5.185547,1.230469 3.984375,0 6.09375,-1.933594 2.138672,-1.96289 2.138672,-4.921875 0,-2.43164 -1.816406,-4.072265 Q 21.533204,31.933594 17.753907,30.732422 15.292969,29.941406 13.212891,29.267578 11.16211,28.59375 9.3457036,27.890625 5.1562505,26.220703 3.1054692,23.115234 1.0839849,20.009766 1.0839849,16.171875 q 0,-2.431641 1.0546875,-4.658203 Q 3.1933599,9.2578125 5.2148442,7.4707031 7.148438,5.8007812 10.166016,4.7460937 q 3.017578,-1.0546874 6.5625,-1.0546874 3.457031,0 6.474609,0.9667968 3.017579,0.9375 4.746094,1.9042969 l 1.78711,-1.7578125 2.548828,0 0.234375,14.1796875 -2.519532,0 q -0.878906,-2.285156 -2.080078,-4.658203 -1.171875,-2.402344 -2.490234,-3.984375 -1.435547,-1.6992189 -3.310547,-2.6953126 -1.875,-1.0253907 -4.394531,-1.0253907 -3.164063,0 -5.185547,1.7871094 -1.992188,1.7871099 -1.992188,4.4238279 0,2.490235 1.728516,4.072266 1.757813,1.582031 5.449219,2.783203 2.167969,0.732422 4.423828,1.464844 2.255859,0.732422 4.013672,1.40625 4.248047,1.640625 6.445312,4.541015 2.226563,2.871094 2.226563,7.148438 0,2.695312 -1.259766,5.214844 -1.259765,2.519531 -3.398437,4.189453 -2.34375,1.845703 -5.419922,2.841797 -3.076172,0.996093 -7.177735,0.996093 z"
         style="fill:#333333"
         id="path4473" />
      <path
         d="m 76.962891,45.761719 -13.974609,0.849609 -0.439453,-0.410156 0,-3.837891 -0.175782,0 q -0.996093,0.908203 -1.96289,1.78711 -0.9375,0.849609 -2.25586,1.552734 -1.49414,0.791016 -2.841797,1.171875 -1.318359,0.380859 -3.867187,0.380859 -4.423828,0 -6.796875,-2.666015 -2.34375,-2.666016 -2.34375,-7.529297 l 0,-13.183594 q 0,-1.142578 -0.439453,-1.845703 -0.439453,-0.732422 -1.171875,-1.289063 -0.585938,-0.439453 -1.523438,-0.615234 -0.9375,-0.205078 -1.699218,-0.263672 l 0,-2.138672 14.208984,-0.761718 0.322266,0.439453 0,19.482422 q 0,3.017578 1.142578,4.453125 1.171875,1.435546 3.193359,1.435546 2.080078,0 3.720703,-1.083984 1.669922,-1.083984 2.431641,-2.314453 l 0,-15.791016 q 0,-0.996093 -0.38086,-1.787109 -0.380859,-0.791016 -1.113281,-1.289063 -0.527344,-0.351562 -1.523437,-0.46875 -0.966797,-0.117187 -1.992188,-0.175781 l 0,-2.138672 14.208985,-0.761718 0.439453,0.439453 0,22.617187 q 0,1.025391 0.410156,1.757813 0.410156,0.703125 1.201172,1.201172 0.55664,0.351562 1.435547,0.498046 0.908203,0.117188 1.787109,0.146485 l 0,2.138672 z"
         style="fill:#333333"
         id="path4475" />
      <path
         d="m 115.07813,32.109375 q 0,6.181641 -4.13086,10.605469 -4.13086,4.423828 -10.45899,4.423828 -2.812498,0 -4.570311,-0.585938 -1.757812,-0.55664 -2.90039,-1.376953 l -0.234375,0 0,8.232422 q 0,1.025391 0.439453,1.787109 0.46875,0.761719 1.289062,1.113282 0.791016,0.322265 2.226563,0.585937 1.464843,0.263672 2.43164,0.322266 l 0,2.167969 -21.152343,0 0,-2.167969 q 0.732421,-0.05859 1.845703,-0.234375 1.113281,-0.146485 1.669922,-0.322266 0.9375,-0.322265 1.259765,-1.113281 0.351563,-0.761719 0.351563,-1.757813 l 0,-29.970703 q -0.08789,-0.966797 -0.46875,-1.699218 -0.351563,-0.732422 -1.142578,-1.289063 -0.585938,-0.380859 -1.552735,-0.615234 -0.966797,-0.263672 -1.904297,-0.351563 l 0,-2.138672 14.267578,-0.761718 0.439454,0.380859 0,3.251953 0.234375,0.05859 q 1.933593,-1.962891 4.277343,-3.046875 2.373047,-1.083985 4.687498,-1.083985 6.06446,0 9.58008,4.306641 3.51563,4.277344 3.51563,11.279297 z m -10.51758,0.117187 q 0,-2.197265 -0.32227,-4.189453 -0.32226,-2.021484 -1.14258,-3.603515 -0.79101,-1.582032 -2.10937,-2.519532 -1.289064,-0.9375 -3.164064,-0.9375 -1.904297,0 -3.046875,0.673829 -1.142578,0.644531 -1.992187,1.699218 l 0,16.611328 q 0.175781,0.585938 0.673828,1.523438 0.498047,0.908203 0.996093,1.464844 0.732422,0.791015 1.669922,1.171875 0.9375,0.380859 2.050782,0.380859 2.900391,0 4.628901,-3.105469 1.75782,-3.134765 1.75782,-9.169922 z"
         style="fill:#333333"
         id="path4477" />
      <path
         d="m 150.38086,39.375 q -1.02539,1.669922 -2.49023,3.164062 -1.43555,1.464844 -3.28125,2.519532 -1.9629,1.113281 -3.98438,1.669922 -1.99219,0.585937 -4.59961,0.585937 -4.33594,0 -7.5,-1.230469 -3.13476,-1.230468 -5.18555,-3.310547 -2.05078,-2.080078 -3.07617,-4.892578 -0.99609,-2.841797 -0.99609,-6.152343 0,-2.988282 1.08398,-5.712891 1.11328,-2.753906 3.13477,-4.892578 1.99219,-2.080078 5.00976,-3.369141 3.04688,-1.289062 6.79688,-1.289062 4.10156,0 6.73828,0.996093 2.63672,0.996094 4.36523,2.753907 1.66993,1.669922 2.43165,3.955078 0.76171,2.255859 0.76171,4.746094 l 0,1.904296 -19.80468,0 q 0,6.00586 2.31445,9.140625 2.31445,3.134766 7.35352,3.134766 2.7539,0 4.95117,-1.494141 2.19726,-1.523437 3.75,-3.83789 L 150.38086,39.375 Z M 139.18945,28.242187 q 0,-1.757812 -0.17578,-3.603515 -0.17578,-1.845703 -0.61523,-3.017578 -0.49805,-1.376953 -1.37696,-2.080078 -0.8496,-0.703125 -2.16796,-0.703125 -2.25586,0 -3.60352,2.285156 -1.34766,2.285156 -1.46484,7.236328 l 9.40429,-0.117188 z"
         style="fill:#333333"
         id="path4479" />
      <path
         d="m 182.40234,22.675781 q 0,2.226563 -1.37695,3.925781 -1.37695,1.669922 -3.63281,1.669922 -2.13867,0 -3.63281,-1.083984 -1.46485,-1.083984 -1.46485,-3.193359 0,-1.025391 0.14649,-1.582032 0.14648,-0.585937 0.26367,-1.083984 -1.34766,0.05859 -2.8418,0.9375 -1.49414,0.878906 -2.63672,2.34375 l 0,16.083984 q 0,1.025391 0.32227,1.699219 0.32226,0.673828 1.08398,1.054688 0.64453,0.322265 2.08008,0.55664 1.46484,0.205078 2.10938,0.234375 l 0,2.138672 -19.59961,0 0,-2.138672 q 0.73242,-0.05859 1.46484,-0.146484 0.76172,-0.117188 1.28906,-0.292969 0.9375,-0.322266 1.28907,-0.996094 0.35156,-0.673828 0.35156,-1.757812 l 0,-17.050781 q 0,-1.054688 -0.49805,-1.875 -0.49805,-0.84961 -1.20117,-1.347657 -0.52734,-0.351562 -1.34766,-0.585937 -0.79101,-0.234375 -1.75781,-0.322266 l 0,-2.138672 13.97461,-0.761718 0.43945,0.439453 0,4.248047 0.11719,0 q 2.02148,-2.34375 4.27734,-3.66211 2.28516,-1.347656 4.7461,-1.347656 2.72461,0 4.36523,1.699219 1.66992,1.669922 1.66992,4.335937 z"
         style="fill:#333333"
         id="path4481" />
      <path
         d="m 208.56445,11.748047 q -1.8457,2.724609 -3.80859,5.771484 -1.96289,3.017578 -3.75,5.917969 -0.87891,-0.498047 -2.25586,-0.966797 -1.34766,-0.46875 -3.19336,-0.46875 -1.11328,0 -2.34375,0.234375 -1.20117,0.205078 -2.60742,0.761719 -0.35156,0.146484 -0.61524,0.146484 -0.55664,0 -0.9082,-0.380859 -0.32226,-0.38086 -0.32226,-0.908203 0,-0.673828 0.55664,-1.230469 l 5.91797,-5.976562 q 0.43945,-0.439454 0.9375,-0.84961 0.41015,-0.351562 0.9375,-0.703125 0.52734,-0.380859 1.08398,-0.644531 0.38086,-0.175781 0.84961,-0.292969 0.49805,-0.146484 0.9375,-0.234375 0.52734,-0.117187 1.02539,-0.175781 l 7.55859,0 z m -5.91797,31.435547 q -0.11718,1.728515 -0.70312,2.929687 -0.58594,1.171875 -1.49414,1.933594 -0.87891,0.791016 -2.02149,1.230469 -1.14257,0.439453 -2.37304,0.644531 -1.23047,0.234375 -2.49024,0.322266 -1.25976,0.117187 -2.40234,0.205078 -1.11328,0.08789 -2.05078,0.234375 -0.9375,0.146484 -1.52344,0.498047 0.46875,-0.791016 0.61524,-2.167969 0.14648,-1.376953 0.26367,-2.988281 0.14648,-1.640625 0.41015,-3.310547 0.26368,-1.699219 0.9961,-3.105469 0.73242,-1.40625 2.08008,-2.34375 1.34765,-0.966797 3.63281,-1.142578 l 1.875,1.875 q -0.38086,0.146484 -0.79102,0.410156 -0.41015,0.263672 -0.73242,0.585938 -0.64453,0.644531 -0.9668,1.40625 -0.32226,0.732421 -0.32226,1.435546 0,1.025391 0.64453,1.640625 0.32226,0.322266 0.73242,0.498047 0.43945,0.146485 0.9375,0.146485 0.70313,0 1.43555,-0.292969 0.73242,-0.322266 1.37695,-0.9375 0.70313,-0.791016 0.99609,-1.582031 l 1.875,1.875 z m 23.14454,-3.105469 q -0.23438,0.556641 -0.61524,1.054687 -0.35156,0.498047 -0.70312,0.908204 -0.41016,0.46875 -0.84961,0.908203 l -5.97657,6.005859 q -0.52734,0.527344 -1.20117,0.527344 -0.52734,0 -0.9375,-0.351563 -0.38086,-0.322265 -0.38086,-0.878906 0,-0.146484 0.0293,-0.322266 0.0293,-0.146484 0.0879,-0.292968 0.58594,-1.40625 0.79102,-2.607422 0.23437,-1.230469 0.23437,-2.314453 0,-1.845703 -0.46875,-3.19336 -0.46875,-1.376953 -0.9668,-2.255859 2.8711,-1.845703 5.88868,-3.779297 3.04687,-1.933594 5.77148,-3.779297 l 0,7.558594 q -0.0586,0.498047 -0.17578,0.996094 -0.0879,0.410156 -0.23438,0.908203 -0.11718,0.498047 -0.29296,0.908203 z M 237.59766,0.64453125 q 0.23437,0.84960935 0.43945,2.31445315 0.20508,1.4648437 0.20508,3.3398437 0,1.6699219 -0.26367,3.6035157 -0.26368,1.9335942 -0.9961,3.9843752 -0.70312,2.021484 -1.96289,4.101562 -1.23047,2.050781 -3.16406,3.984375 -0.58594,0.585938 -1.78711,1.494141 -1.17188,0.908203 -2.7832,2.050781 -1.58203,1.113281 -3.51563,2.402344 -1.93359,1.289062 -4.04297,2.666015 -2.08008,1.347657 -4.24804,2.72461 -2.13868,1.376953 -4.18946,2.666015 -2.02148,1.259766 -3.86718,2.402344 -1.81641,1.113281 -3.25196,1.992188 l -6.35742,-6.269532 q 1.20117,-1.933593 2.8125,-4.511718 1.61133,-2.578125 3.39844,-5.390625 1.78711,-2.8125 3.60351,-5.625 1.84571,-2.841797 3.48633,-5.273438 1.66992,-2.460937 3.01758,-4.2773435 1.34766,-1.8164063 2.13867,-2.6074219 1.9336,-1.9335937 3.98438,-3.1640625 2.08007,-1.2597656 4.10156,-1.9628906 2.05078,-0.73242188 3.98437,-0.99609375 Q 230.30273,0 232.00195,0 q 1.84571,0 3.28125,0.20507813 1.46485,0.20507812 2.31446,0.43945312 z M 222.24609,15.996094 q 0.76172,0.761718 1.66993,1.113281 0.9082,0.351562 1.875,0.351562 0.96679,0 1.875,-0.351562 0.9375,-0.351563 1.66992,-1.083984 0.76172,-0.761719 1.11328,-1.669922 0.38086,-0.9375 0.38086,-1.904297 0,-0.966797 -0.38086,-1.875 -0.35156,-0.9082032 -1.11328,-1.669922 -1.55274,-1.4941406 -3.54492,-1.4941406 -0.9668,0 -1.9043,0.3808593 -0.9082,0.3808594 -1.64063,1.1425782 -0.73242,0.7617187 -1.11328,1.6699221 -0.35156,0.908203 -0.35156,1.875 0,0.966797 0.35156,1.875 0.38086,0.908203 1.11328,1.640625 z"
         style="word-spacing:6.55000257px;fill:#d33232;fill-opacity:1"
         id="path4483" />
      <path
         d="m 17.578125,93.090234 q -3.808593,0 -7.11914,-0.9375 -3.2812501,-0.9375 -5.5664064,-2.226563 l -2.0214844,2.050782 -2.49023435,0 L 4.7683716e-7,76.947656 2.5195317,76.947656 q 0.8496094,2.138672 2.1679688,4.511718 1.3183594,2.373047 3.046875,4.248047 1.7871094,1.962891 3.9843745,3.19336 2.226563,1.230468 5.185547,1.230468 3.984375,0 6.09375,-1.933593 2.138672,-1.962891 2.138672,-4.921875 0,-2.431641 -1.816406,-4.072266 -1.787109,-1.669922 -5.566406,-2.871094 -2.460938,-0.791015 -4.541016,-1.464843 -2.050781,-0.673829 -3.8671874,-1.376954 -4.1894531,-1.669921 -6.2402344,-4.77539 -2.0214843,-3.105469 -2.0214843,-6.94336 0,-2.43164 1.0546875,-4.658203 1.0546875,-2.255859 3.0761718,-4.042968 1.9335938,-1.669922 4.9511718,-2.72461 3.017578,-1.054687 6.5625,-1.054687 3.457031,0 6.474609,0.966797 3.017579,0.9375 4.746094,1.904296 l 1.78711,-1.757812 2.548828,0 0.234375,14.179687 -2.519532,0 q -0.878906,-2.285156 -2.080078,-4.658203 -1.171875,-2.402343 -2.490234,-3.984375 -1.435547,-1.699218 -3.310547,-2.695312 -1.875,-1.025391 -4.394531,-1.025391 -3.164063,0 -5.185547,1.78711 -1.992188,1.787109 -1.992188,4.423828 0,2.490234 1.728516,4.072265 1.757813,1.582032 5.449219,2.783203 2.167969,0.732422 4.423828,1.464844 2.255859,0.732422 4.013672,1.40625 4.248047,1.640625 6.445312,4.541016 2.226563,2.871094 2.226563,7.148437 0,2.695313 -1.259766,5.214844 -1.259765,2.519531 -3.398437,4.189453 -2.34375,1.845703 -5.419922,2.841797 -3.076172,0.996094 -7.177735,0.996094 z"
         style="font-style:normal;font-variant:normal;font-weight:bold;font-stretch:normal;font-size:60px;font-family:Georgia;-inkscape-font-specification:Georgia;word-spacing:6.55000257px;fill:#808080"
         id="path4485" />
      <path
         d="m 70.22461,84.974999 q -1.025391,1.669922 -2.490235,3.164063 -1.435546,1.464844 -3.28125,2.519531 -1.96289,1.113281 -3.984375,1.669922 -1.992187,0.585938 -4.599609,0.585938 -4.335937,0 -7.5,-1.230469 -3.134766,-1.230469 -5.185547,-3.310547 -2.050781,-2.080078 -3.076172,-4.892578 -0.996093,-2.841797 -0.996093,-6.152344 0,-2.988281 1.083984,-5.712891 1.113281,-2.753906 3.134766,-4.892578 1.992187,-2.080078 5.009765,-3.36914 3.046875,-1.289063 6.796875,-1.289063 4.101563,0 6.738281,0.996094 2.636719,0.996094 4.365235,2.753906 1.669922,1.669922 2.43164,3.955078 0.761719,2.25586 0.761719,4.746094 l 0,1.904297 -19.804687,0 q 0,6.005859 2.314453,9.140625 2.314453,3.134766 7.353515,3.134766 2.753907,0 4.951172,-1.494141 2.197266,-1.523438 3.75,-3.837891 l 2.226563,1.611328 z M 59.033204,73.842187 q 0,-1.757813 -0.175782,-3.603516 -0.175781,-1.845703 -0.615234,-3.017578 -0.498047,-1.376953 -1.376953,-2.080078 -0.84961,-0.703125 -2.167969,-0.703125 -2.255859,0 -3.603516,2.285156 -1.347656,2.285157 -1.464843,7.236328 l 9.404297,-0.117187 z"
         style="font-style:normal;font-variant:normal;font-weight:bold;font-stretch:normal;font-size:60px;font-family:Georgia;-inkscape-font-specification:Georgia;word-spacing:6.55000257px;fill:#808080"
         id="path4487" />
      <path
         d="m 102.24609,68.275781 q 0,2.226562 -1.37695,3.925781 -1.376952,1.669922 -3.632811,1.669922 -2.138672,0 -3.632813,-1.083985 -1.464844,-1.083984 -1.464844,-3.193359 0,-1.025391 0.146485,-1.582031 0.146484,-0.585938 0.263672,-1.083985 -1.347657,0.05859 -2.841797,0.9375 -1.494141,0.878907 -2.636719,2.34375 l 0,16.083985 q 0,1.02539 0.322266,1.699219 0.322265,0.673828 1.083984,1.054687 0.644531,0.322266 2.080078,0.556641 1.464844,0.205078 2.109375,0.234375 l 0,2.138672 -19.599609,0 0,-2.138672 q 0.732422,-0.05859 1.464843,-0.146485 0.761719,-0.117187 1.289063,-0.292968 0.9375,-0.322266 1.289062,-0.996094 0.351563,-0.673828 0.351563,-1.757813 l 0,-17.050781 q 0,-1.054687 -0.498047,-1.875 -0.498047,-0.849609 -1.201172,-1.347656 -0.527344,-0.351563 -1.347656,-0.585938 -0.791016,-0.234375 -1.757813,-0.322265 l 0,-2.138672 13.97461,-0.761719 0.439453,0.439453 0,4.248047 0.117187,0 q 2.021485,-2.34375 4.277344,-3.662109 2.285156,-1.347657 4.746094,-1.347657 2.724609,0 4.365232,1.699219 1.66992,1.669922 1.66992,4.335938 z"
         style="font-style:normal;font-variant:normal;font-weight:bold;font-stretch:normal;font-size:60px;font-family:Georgia;-inkscape-font-specification:Georgia;word-spacing:6.55000257px;fill:#808080"
         id="path4489" />
      <path
         d="m 122.75391,91.976953 -18.51563,0 0,-2.138672 q 0.76172,-0.05859 1.49414,-0.146485 0.73242,-0.08789 1.25977,-0.292968 0.9375,-0.351563 1.31836,-0.996094 0.38086,-0.673828 0.38086,-1.757813 l 0,-17.050781 q 0,-1.025391 -0.46875,-1.787109 -0.46875,-0.791016 -1.17188,-1.259766 -0.52734,-0.351562 -1.61133,-0.673828 -1.05468,-0.322266 -1.93359,-0.410156 l 0,-2.138672 14.35547,-0.761719 0.43945,0.439453 0,23.261719 q 0,1.025391 0.43945,1.757812 0.43946,0.703125 1.25977,1.054688 0.58594,0.263672 1.28906,0.46875 0.70313,0.205078 1.46485,0.292969 l 0,2.138672 z m -4.27735,-39.960938 q 0,2.226563 -1.72851,3.808594 -1.69922,1.552734 -4.04297,1.552734 -2.37305,0 -4.10156,-1.552734 -1.69922,-1.582031 -1.69922,-3.808594 0,-2.226562 1.69922,-3.808594 1.72851,-1.582031 4.10156,-1.582031 2.37305,0 4.07226,1.582031 1.69922,1.582032 1.69922,3.808594 z"
         style="font-style:normal;font-variant:normal;font-weight:bold;font-stretch:normal;font-size:60px;font-family:Georgia;-inkscape-font-specification:Georgia;word-spacing:6.55000257px;fill:#808080"
         id="path4491" />
      <path
         d="m 155.36133,66.371484 q 2.16797,2.021484 3.31055,4.833984 1.14257,2.8125 1.14257,6.09375 0,3.251953 -1.14257,6.152344 -1.11329,2.871094 -3.28125,4.921875 -2.31446,2.197266 -5.53711,3.369141 -3.19336,1.171875 -7.32422,1.171875 -3.57422,0 -6.5918,-1.025391 -2.98828,-1.025391 -5.30273,-3.076172 -2.22657,-1.962891 -3.51563,-4.833984 -1.28906,-2.900391 -1.28906,-6.47461 0,-3.515625 1.11328,-6.240234 1.14258,-2.753906 3.39844,-4.892578 2.16797,-2.050781 5.33203,-3.164063 3.19336,-1.142578 7.11914,-1.142578 4.10156,0 7.20703,1.142578 3.13477,1.113282 5.36133,3.164063 z m -7.5,20.302734 q 0.64453,-1.640625 0.9375,-3.984375 0.32226,-2.34375 0.32226,-5.449219 0,-2.050781 -0.29296,-4.6875 -0.29297,-2.636718 -0.87891,-4.160156 -0.70313,-1.845703 -1.96289,-2.90039 -1.23047,-1.054688 -3.13477,-1.054688 -2.08008,0 -3.33984,1.142578 -1.23047,1.142578 -1.9043,2.958985 -0.61523,1.669921 -0.84961,3.925781 -0.23437,2.226562 -0.23437,4.658203 0,3.193359 0.20508,5.302734 0.20507,2.080078 0.99609,4.189453 0.67383,1.816407 1.93359,2.871094 1.25977,1.054688 3.19336,1.054688 1.75782,0 3.01758,-0.966797 1.25977,-0.996094 1.99219,-2.900391 z"
         style="font-style:normal;font-variant:normal;font-weight:bold;font-stretch:normal;font-size:60px;font-family:Georgia;-inkscape-font-specification:Georgia;word-spacing:6.55000257px;fill:#808080"
         id="path4493" />
      <path
         d="m 201.88477,91.361718 -13.97461,0.84961 -0.43946,-0.410157 0,-3.83789 -0.17578,0 q -0.99609,0.908203 -1.96289,1.787109 -0.9375,0.849609 -2.25586,1.552734 -1.49414,0.791016 -2.84179,1.171875 -1.31836,0.38086 -3.86719,0.38086 -4.42383,0 -6.79688,-2.666016 -2.34375,-2.666015 -2.34375,-7.529297 l 0,-13.183593 q 0,-1.142579 -0.43945,-1.845704 -0.43945,-0.732421 -1.17188,-1.289062 -0.58593,-0.439453 -1.52343,-0.615234 -0.9375,-0.205079 -1.69922,-0.263672 l 0,-2.138672 14.20898,-0.761719 0.32227,0.439453 0,19.482422 q 0,3.017578 1.14258,4.453125 1.17187,1.435547 3.19336,1.435547 2.08007,0 3.7207,-1.083984 1.66992,-1.083985 2.43164,-2.314454 l 0,-15.791015 q 0,-0.996094 -0.38086,-1.78711 -0.38086,-0.791015 -1.11328,-1.289062 -0.52734,-0.351563 -1.52344,-0.46875 -0.9668,-0.117188 -1.99219,-0.175781 l 0,-2.138672 14.20899,-0.761719 0.43945,0.439453 0,22.617188 q 0,1.02539 0.41016,1.757812 0.41015,0.703125 1.20117,1.201172 0.55664,0.351563 1.43555,0.498047 0.9082,0.117187 1.78711,0.146484 l 0,2.138672 z"
         style="font-style:normal;font-variant:normal;font-weight:bold;font-stretch:normal;font-size:60px;font-family:Georgia;-inkscape-font-specification:Georgia;word-spacing:6.55000257px;fill:#808080"
         id="path4495" />
      <path
         d="m 217.88086,92.973046 q -2.8418,0 -5.56641,-0.849609 -2.69531,-0.820313 -4.18945,-1.757813 l -0.87891,1.992188 -2.28515,0 -0.38086,-10.927734 2.13867,0 q 0.43945,1.318359 1.46484,2.988281 1.02539,1.640625 2.34375,2.958984 1.37696,1.31836 3.13477,2.226563 1.78711,0.908203 3.80859,0.908203 2.66602,0 3.95508,-1.025391 1.31836,-1.054687 1.31836,-3.222656 0,-1.171875 -0.58594,-1.933594 -0.58593,-0.761719 -1.61132,-1.318359 -1.14258,-0.585938 -2.51954,-0.996094 -1.34765,-0.410156 -3.33984,-0.996094 -1.99219,-0.585937 -3.42773,-1.171875 -1.40625,-0.615234 -2.92969,-1.904297 -1.31836,-1.142578 -2.10938,-2.753906 -0.79101,-1.611328 -0.79101,-3.83789 0,-4.13086 3.45703,-6.679688 3.48633,-2.548828 9.11133,-2.548828 2.66601,0 4.89258,0.556641 2.25585,0.527343 3.77929,1.171875 l 0.61524,-1.728516 2.22656,0 0.46875,9.990234 -2.08008,0 q -1.02539,-3.046875 -3.51562,-5.24414 -2.49024,-2.226563 -5.36133,-2.226563 -2.25586,0 -3.54492,0.9375 -1.28907,0.9375 -1.28907,2.607422 0,2.226563 1.875,3.222656 1.9043,0.996094 5.30274,1.875 5.24414,1.347657 7.67578,3.691407 2.43164,2.314453 2.43164,5.917968 0,4.804688 -3.7793,7.441407 -3.75,2.636718 -9.81445,2.636718 z"
         style="font-style:normal;font-variant:normal;font-weight:bold;font-stretch:normal;font-size:60px;font-family:Georgia;-inkscape-font-specification:Georgia;word-spacing:6.55000257px;fill:#808080"
         id="path4497" />
    </g>
  </g>
</svg>
